<svg width="181" height="20" viewBox="0 0 181 20" xmlns="http://www.w3.org/2000/svg">
<path d="M32.0428 20C30.2012 20 28.5898 19.5948 27.2086 18.7845C25.8458 17.9558 24.7868 16.8048 24.0318 15.3315C23.2767 13.8582 22.8992 12.1363 22.8992 10.1657C22.8992 8.1768 23.2859 6.41805 24.0594 4.8895C24.8513 3.36096 25.9839 2.1639 27.4572 1.29834C28.9305 0.432781 30.6892 0 32.7334 0C35.0355 0 36.9415 0.552486 38.4517 1.65746C39.9802 2.76243 40.9655 4.29098 41.4075 6.24309H36.7942C36.518 5.46961 36.0299 4.87109 35.3301 4.44751C34.6487 4.02394 33.774 3.81216 32.7058 3.81216C31.4903 3.81216 30.4682 4.07919 29.6395 4.61326C28.8108 5.12891 28.1846 5.86556 27.7611 6.8232C27.3375 7.76243 27.1257 8.87661 27.1257 10.1657C27.1257 11.4917 27.3375 12.6151 27.7611 13.5359C28.1846 14.4567 28.8016 15.1565 29.6119 15.6354C30.4222 16.0958 31.3798 16.326 32.4848 16.326C34.0686 16.326 35.2657 15.9116 36.076 15.0829C36.9047 14.2541 37.4112 13.2136 37.5953 11.9613H33.0926V8.8674H41.739V19.6685H37.9268L37.5953 17.4309C37.2086 17.9834 36.7482 18.453 36.2141 18.8398C35.6984 19.2265 35.0907 19.512 34.3909 19.6961C33.7095 19.8987 32.9268 20 32.0428 20Z" />
<path d="M43.0153 19.6685L50.0595 0.331491H54.8109L61.8551 19.6685H57.4628L52.4076 5L47.3523 19.6685H43.0153ZM46.0816 15.442L47.1866 12.2376H57.3247L58.402 15.442H46.0816Z" />
<path d="M65.8997 19.6685V3.67403H60.2919V0.331491H75.651V3.67403H70.0433V19.6685H65.8997Z" />
<path d="M77.4024 19.6685V0.331491H90.3582V3.67403H81.546V8.23204H89.5294V11.4365H81.546V16.326H90.3582V19.6685H77.4024Z" />
<path d="M104.941 19.6685V0.331491H109.084V19.6685H104.941ZM92.8137 19.6685V0.331491H96.9574V19.6685H92.8137ZM96.4325 11.4641V8.12155H105.604V11.4641H96.4325Z" />
<path d="M120.953 20C119.057 20 117.39 19.5764 115.953 18.7293C114.517 17.8821 113.384 16.7127 112.556 15.221C111.745 13.7109 111.34 11.9705 111.34 10C111.34 8.02947 111.745 6.29834 112.556 4.80663C113.384 3.2965 114.517 2.11786 115.953 1.27072C117.39 0.423573 119.057 0 120.953 0C122.85 0 124.526 0.423573 125.981 1.27072C127.436 2.11786 128.559 3.2965 129.351 4.80663C130.161 6.29834 130.567 8.02947 130.567 10C130.567 11.9705 130.161 13.7109 129.351 15.221C128.559 16.7127 127.436 17.8821 125.981 18.7293C124.526 19.5764 122.85 20 120.953 20ZM120.953 16.2707C122.077 16.2707 123.034 16.0129 123.826 15.4972C124.637 14.9816 125.263 14.2634 125.705 13.3425C126.147 12.4033 126.368 11.2891 126.368 10C126.368 8.71087 126.147 7.60589 125.705 6.68508C125.263 5.74586 124.637 5.02762 123.826 4.53039C123.034 4.01473 122.077 3.75691 120.953 3.75691C119.867 3.75691 118.918 4.01473 118.108 4.53039C117.298 5.02762 116.672 5.74586 116.23 6.68508C115.788 7.60589 115.567 8.71087 115.567 10C115.567 11.2891 115.788 12.4033 116.23 13.3425C116.672 14.2634 117.298 14.9816 118.108 15.4972C118.918 16.0129 119.867 16.2707 120.953 16.2707Z" />
<path d="M140.487 20C139.033 20 137.707 19.7145 136.51 19.1436C135.331 18.5543 134.392 17.6796 133.692 16.5193C133.01 15.3591 132.67 13.895 132.67 12.1271V0.331491H136.813V12.1547C136.813 13.0203 136.952 13.7569 137.228 14.3646C137.522 14.9724 137.946 15.4328 138.499 15.7459C139.069 16.0405 139.751 16.1878 140.543 16.1878C141.353 16.1878 142.034 16.0405 142.587 15.7459C143.158 15.4328 143.591 14.9724 143.885 14.3646C144.18 13.7569 144.327 13.0203 144.327 12.1547V0.331491H148.471V12.1271C148.471 13.895 148.103 15.3591 147.366 16.5193C146.648 17.6796 145.681 18.5543 144.465 19.1436C143.268 19.7145 141.942 20 140.487 20Z" />
<path d="M157.956 20C156.575 20 155.322 19.7698 154.199 19.3094C153.094 18.8306 152.219 18.1308 151.575 17.2099C150.93 16.2891 150.58 15.1565 150.525 13.8122H154.945C154.963 14.3462 155.101 14.8158 155.359 15.221C155.617 15.6262 155.967 15.9484 156.409 16.1878C156.851 16.4088 157.367 16.5193 157.956 16.5193C158.453 16.5193 158.886 16.4457 159.254 16.2983C159.641 16.1326 159.945 15.9024 160.166 15.6077C160.387 15.2947 160.497 14.9079 160.497 14.4475C160.497 13.9687 160.368 13.5635 160.111 13.232C159.853 12.8821 159.503 12.5875 159.061 12.3481C158.619 12.0902 158.103 11.86 157.514 11.6575C156.943 11.4365 156.326 11.2247 155.663 11.0221C154.135 10.5249 152.956 9.85267 152.127 9.00552C151.317 8.15838 150.912 7.02578 150.912 5.60774C150.912 4.4291 151.197 3.42541 151.768 2.59668C152.357 1.74954 153.159 1.10497 154.171 0.662983C155.184 0.220994 156.335 0 157.624 0C158.95 0 160.111 0.230202 161.105 0.690607C162.118 1.1326 162.919 1.78637 163.508 2.65193C164.116 3.49908 164.438 4.51197 164.475 5.69061H160.028C160.009 5.28545 159.89 4.91713 159.669 4.58564C159.466 4.25414 159.181 3.98711 158.812 3.78453C158.462 3.58195 158.048 3.48066 157.569 3.48066C157.146 3.46225 156.759 3.5267 156.409 3.67403C156.059 3.80295 155.783 4.01473 155.58 4.30939C155.378 4.58564 155.276 4.93554 155.276 5.35912C155.276 5.76427 155.378 6.12339 155.58 6.43646C155.801 6.73112 156.096 6.98895 156.464 7.20994C156.851 7.41252 157.293 7.60589 157.79 7.79006C158.306 7.97422 158.868 8.15838 159.475 8.34254C160.451 8.67403 161.345 9.06998 162.155 9.53039C162.984 9.97237 163.647 10.5617 164.144 11.2983C164.659 12.0166 164.917 12.9742 164.917 14.1713C164.917 15.221 164.641 16.1878 164.089 17.0718C163.554 17.9558 162.772 18.6648 161.74 19.1989C160.728 19.733 159.466 20 157.956 20Z" />
<path d="M167.219 19.6685V0.331491H180.175V3.67403H171.363V8.23204H179.346V11.4365H171.363V16.326H180.175V19.6685H167.219Z" />
<path d="M16.1142 8.11575H0V19.6259H4.60405V14.0452L8.05709 11.9525L11.5101 14.0452V19.6259H16.1142V8.11575Z" />
<path d="M0 0.0586594H3.83671V6.19739H0V0.0586594Z" />
<path d="M6.13873 0.0586594H9.97544V6.19739H6.13873V0.0586594Z" />
<path d="M12.2775 0.0586594H16.1142V6.19739H12.2775V0.0586594Z" />
<path d="M0 2.74436H16.1142V6.58107H0V2.74436Z" />
</svg>
